<svg width="16" height="16" viewBox="0 0 16 16" version="1.1" xmlns="http://www.w3.org/2000/svg" xmlns:xlink="http://www.w3.org/1999/xlink" xmlns:figma="http://www.figma.com/figma/ns">
<title>favicon</title>
<desc>Created using Figma</desc>
<g id="Canvas" transform="translate(64 186)" figma:type="canvas">
<g id="favicon" style="mix-blend-mode:normal;" figma:type="vector">
<use xlink:href="#path0_fill" transform="translate(-64 -186)" fill="#F96856" style="mix-blend-mode:normal;"/>
<use xlink:href="#path1_fill" transform="translate(-64 -186)" fill="#F96856" style="mix-blend-mode:normal;"/>
<use xlink:href="#path2_fill" transform="translate(-64 -186)" fill="#F96856" style="mix-blend-mode:normal;"/>
</g>
</g>
<defs>
<path id="path0_fill" fill-rule="evenodd" d="M 14 1L 2 1C 1.44772 1 1 1.44772 1 2L 1 14C 1 14.5523 1.44772 15 2 15L 14 15C 14.5523 15 15 14.5523 15 14L 15 2C 15 1.44772 14.5523 1 14 1ZM 2 0C 0.895431 0 0 0.895431 0 2L 0 14C 0 15.1046 0.895431 16 2 16L 14 16C 15.1046 16 16 15.1046 16 14L 16 2C 16 0.895431 15.1046 0 14 0L 2 0Z"/>
<path id="path1_fill" d="M 6.596 3.60001C 6.596 4.20001 6.64 5.12801 6.728 6.38401C 6.816 7.64001 6.86 8.58401 6.86 9.21601C 6.86 10.152 6.692 10.856 6.356 11.328C 6.02 11.8 5.412 12.036 4.532 12.036C 4.004 12.036 3.512 11.924 3.056 11.7C 2.6 11.476 2.284 11.176 2.108 10.8C 2.308 10.632 2.48 10.548 2.624 10.548C 2.776 10.548 2.912 10.6 3.032 10.704C 3.16 10.8 3.272 10.908 3.368 11.028C 3.472 11.148 3.648 11.26 3.896 11.364C 4.152 11.46 4.484 11.508 4.892 11.508C 5.308 11.508 5.6 11.328 5.768 10.968C 5.944 10.608 6.032 10.088 6.032 9.40801C 6.032 8.72801 5.992 7.88401 5.912 6.87601C 5.832 5.86801 5.792 5.12801 5.792 4.65601C 5.792 4.17601 5.832 3.87201 5.912 3.74401C 5.992 3.61601 6.096 3.55201 6.224 3.55201C 6.36 3.55201 6.484 3.56801 6.596 3.60001Z"/>
<path id="path2_fill" d="M 9.62675 3.82801L 9.56675 9.14401C 9.56675 9.96801 9.59075 10.748 9.63875 11.484C 10.1188 11.516 10.5548 11.532 10.9468 11.532L 13.4668 11.484C 13.8588 11.484 14.0548 11.596 14.0548 11.82C 14.0548 12.084 13.2148 12.216 11.5348 12.216C 11.1268 12.216 10.6028 12.196 9.96275 12.156C 9.32275 12.116 8.93475 12.052 8.79875 11.964C 8.75875 11.116 8.73875 9.73201 8.73875 7.81201L 8.79875 3.58801C 9.00675 3.42801 9.17475 3.34801 9.30275 3.34801C 9.51875 3.34801 9.62675 3.50801 9.62675 3.82801Z"/>
</defs>
</svg>
